0
SECTION
2
HEADER
0
ENDSEC
0
SECTION
2
ENTITIES
0
LWPOLYLINE
8
OUTER_PROFILE
90
124
70
1
10
0.000000
20
0.000000
10
3.000000
20
1.072991
10
6.000000
20
2.125707
10
9.000000
20
3.158275
10
12.000000
20
4.170819
10
15.000000
20
5.163460
10
18.000000
20
6.136316
10
21.000000
20
7.089501
10
24.000000
20
8.023126
10
27.000000
20
8.937298
10
30.000000
20
9.832123
10
33.000000
20
10.707703
10
36.000000
20
11.564137
10
39.000000
20
12.401521
10
42.000000
20
13.219949
10
45.000000
20
14.019510
10
48.000000
20
14.800295
10
51.000000
20
15.562388
10
54.000000
20
16.305871
10
57.000000
20
17.030827
10
60.000000
20
17.737332
10
63.000000
20
18.425463
10
66.000000
20
19.095292
10
69.000000
20
19.746890
10
72.000000
20
20.380327
10
75.000000
20
20.995669
10
78.000000
20
21.592980
10
81.000000
20
22.172321
10
84.000000
20
22.733754
10
87.000000
20
23.277335
10
90.000000
20
23.803121
10
93.000000
20
24.311164
10
96.000000
20
24.801518
10
99.000000
20
25.274231
10
102.000000
20
25.729351
10
105.000000
20
26.166924
10
108.000000
20
26.586994
10
111.000000
20
26.989602
10
114.000000
20
27.374790
10
117.000000
20
27.742595
10
120.000000
20
28.093053
10
123.000000
20
28.426199
10
126.000000
20
28.742067
10
129.000000
20
29.040686
10
132.000000
20
29.322087
10
135.000000
20
29.586297
10
138.000000
20
29.833341
10
141.000000
20
30.063244
10
144.000000
20
30.276028
10
147.000000
20
30.471713
10
150.000000
20
30.650320
10
153.000000
20
30.811864
10
156.000000
20
30.956362
10
159.000000
20
31.083827
10
162.000000
20
31.194272
10
165.000000
20
31.287708
10
168.000000
20
31.364143
10
171.000000
20
31.423585
10
174.000000
20
31.466039
10
177.000000
20
31.491510
10
180.000000
20
31.500000
10
860.000000
20
31.500000
10
860.000000
20
-31.500000
10
180.000000
20
-31.500000
10
177.000000
20
-31.491510
10
174.000000
20
-31.466039
10
171.000000
20
-31.423585
10
168.000000
20
-31.364143
10
165.000000
20
-31.287708
10
162.000000
20
-31.194272
10
159.000000
20
-31.083827
10
156.000000
20
-30.956362
10
153.000000
20
-30.811864
10
150.000000
20
-30.650320
10
147.000000
20
-30.471713
10
144.000000
20
-30.276028
10
141.000000
20
-30.063244
10
138.000000
20
-29.833341
10
135.000000
20
-29.586297
10
132.000000
20
-29.322087
10
129.000000
20
-29.040686
10
126.000000
20
-28.742067
10
123.000000
20
-28.426199
10
120.000000
20
-28.093053
10
117.000000
20
-27.742595
10
114.000000
20
-27.374790
10
111.000000
20
-26.989602
10
108.000000
20
-26.586994
10
105.000000
20
-26.166924
10
102.000000
20
-25.729351
10
99.000000
20
-25.274231
10
96.000000
20
-24.801518
10
93.000000
20
-24.311164
10
90.000000
20
-23.803121
10
87.000000
20
-23.277335
10
84.000000
20
-22.733754
10
81.000000
20
-22.172321
10
78.000000
20
-21.592980
10
75.000000
20
-20.995669
10
72.000000
20
-20.380327
10
69.000000
20
-19.746890
10
66.000000
20
-19.095292
10
63.000000
20
-18.425463
10
60.000000
20
-17.737332
10
57.000000
20
-17.030827
10
54.000000
20
-16.305871
10
51.000000
20
-15.562388
10
48.000000
20
-14.800295
10
45.000000
20
-14.019510
10
42.000000
20
-13.219949
10
39.000000
20
-12.401521
10
36.000000
20
-11.564137
10
33.000000
20
-10.707703
10
30.000000
20
-9.832123
10
27.000000
20
-8.937298
10
24.000000
20
-8.023126
10
21.000000
20
-7.089501
10
18.000000
20
-6.136316
10
15.000000
20
-5.163460
10
12.000000
20
-4.170819
10
9.000000
20
-3.158275
10
6.000000
20
-2.125707
10
3.000000
20
-1.072991
10
0.000000
20
-0.000000
0
LINE
8
CENTERLINE
10
0
20
0
11
860.000000
21
0
0
ENDSEC
0
EOF
